<svg xmlns="http://www.w3.org/2000/svg" xmlns:xlink="http://www.w3.org/1999/xlink" viewBox="0 0 485.64 382.09"><defs><style>.cls-1,.cls-37{fill:none;}.cls-2{isolation:isolate;}.cls-3{fill:#eaeaea;}.cls-4{fill:#b0aaa8;}.cls-5{fill:#dcd8d6;}.cls-6{fill:#fff;}.cls-7{fill:#c2bfbd;}.cls-8{fill:#a2a2a2;}.cls-9{fill:#cdc9c7;}.cls-10{fill:#adadad;}.cls-11,.cls-25,.cls-28,.cls-29,.cls-37{mix-blend-mode:soft-light;}.cls-12{fill:#dbdbdb;}.cls-13{fill:#c0bcba;}.cls-14{fill:#cecece;}.cls-15{fill:#bcbcbc;}.cls-16{fill:#a8a8a8;}.cls-17{clip-path:url(#clip-path);}.cls-18{fill:#cac6c4;}.cls-19{fill:#cccac8;}.cls-20{fill:#ef9f29;}.cls-20,.cls-21{mix-blend-mode:screen;opacity:0.5;}.cls-21{fill:#f78169;}.cls-22{fill:#b0b0b0;}.cls-23{fill:#602717;}.cls-24{fill:#c65e42;}.cls-25{opacity:0.6;}.cls-26{fill:#db704e;}.cls-27{fill:#050505;}.cls-28{opacity:0.4;}.cls-30{fill:#efb095;}.cls-31{fill:#f4b799;}.cls-32{fill:#0e0428;}.cls-33{fill:#d6948b;}.cls-34{fill:#e6a69b;}.cls-35{fill:#5e1212;}.cls-36{fill:#b22828;}.cls-37{stroke:#000;stroke-linecap:round;stroke-linejoin:round;stroke-width:0.6px;}</style><clipPath id="clip-path"><path class="cls-1" d="M306.39,1.26s-64.42-9-101.87,21S129.61,64.18,89.17,73.17-32.18,190.68,33.74,250.27s83.89,85.1,229.21,80.59S462.19,293.39,444.22,226s-28.47-67.42-30-109.36S385.79,4.26,306.39,1.26Z"/></clipPath></defs><g class="cls-2"><g id="BACKGROUND"><path class="cls-3" d="M306.39,1.26s-64.42-9-101.87,21S129.61,64.18,89.17,73.17-32.18,190.68,33.74,250.27s83.89,85.1,229.21,80.59S462.19,293.39,444.22,226s-28.47-67.42-30-109.36S385.79,4.26,306.39,1.26Z"/><circle class="cls-4" cx="283.41" cy="74.75" r="35.38" transform="translate(207.61 357.88) rotate(-89.79)"/><circle class="cls-5" cx="283.41" cy="74.75" r="30.44" transform="translate(-7.97 43.07) rotate(-8.57)"/><path class="cls-6" d="M284.93,74.75a1.52,1.52,0,1,1-1.52-1.54A1.53,1.53,0,0,1,284.93,74.75Z"/><rect class="cls-6" x="283.13" y="49.77" width="0.56" height="3.04"/><rect class="cls-6" x="258.43" y="74.47" width="3.04" height="0.56"/><rect class="cls-6" x="283.13" y="96.69" width="0.56" height="3.04"/><rect class="cls-6" x="305.35" y="74.47" width="3.04" height="0.56"/><path class="cls-6" d="M283.18,75.73H265.76a1,1,0,0,1-1-1h0a1,1,0,0,1,1-1h17.42a1,1,0,0,1,1,1h0A1,1,0,0,1,283.18,75.73Z"/><rect class="cls-6" x="277.52" y="64.2" width="25.04" height="0.98" rx="0.43" transform="translate(76.46 271.3) rotate(-56.62)"/><path class="cls-7" d="M84.24,151.56l8.81,4.54a102,102,0,0,0,7.87-19.8l-10.85-1.68L102,132.53c.83-3.21,1.33-5.69,1.5-6.86s.6-3.26,1-5.82L93,107.92l12,6.27c.73-10.9.66-28.08-13.2-43.83,0,0-12.29,11.45-17.93,17.82L80.49,98l-9.95-5.14c-2.66,4.8-6,13.62-8.5,20.92L70.92,123l-10.18-5.26c-.88,2.81-1.55,5.14-1.85,6.55a86.29,86.29,0,0,0-2.35,17.12l10.57,2-10.54,1.53c.4,9.78,3.58,20.12,14.31,24.43,8.5,3.41,15.32-2.16,20.49-10.38Z"/><path class="cls-8" d="M91.23,80.63c0,.31-4.16,32.08-12.69,68.87-1.7,7.34-3.41,14.19-5.13,20.6-6.26,23.33-12.6,40.77-18.53,53.82l-.64,1.38A149.33,149.33,0,0,1,43.6,244.81H42.49a148.85,148.85,0,0,0,11.43-21c.21-.46.41-.92.62-1.39,5.76-12.88,11.91-29.94,18-52.56q2.58-9.6,5.13-20.57c8.52-36.75,12.62-68.48,12.67-68.8a.45.45,0,0,1,.51-.39A.46.46,0,0,1,91.23,80.63Z"/><path class="cls-9" d="M28.82,133.32l9.94-.81A94.17,94.17,0,0,0,27,110l-9.31-2,7.41-.6c-6.53-8.57-13.91-15-20-15.76,0,0-8.72,20-1.91,34.78.22.47.43,1,.64,1.46l8.48.47-7.56,1.8c2.09,5.38,3.94,11.58,6.36,17L18,143.54l-5.92,5.81c4.31,8.62,10.51,14.45,22.3,10,7.94-3,8.61-12.62,5.34-23.73Z"/><path class="cls-10" d="M58.52,244.81h-.93c-.31-2.56-.69-5.28-1.16-8.18l-.18-1.07c-.56-3.21-1.22-6.63-2-10.26-.1-.48-.21-1-.32-1.47-1-4.5-2.2-9.32-3.62-14.5-.18-.68-.37-1.37-.57-2.08C46,194,40.86,178.44,33.84,160.37l-.27-.7c-8.38-21.5-17-40.44-22.45-51.87-.48-1-.93-2-1.36-2.83-.67-1.4-1.27-2.65-1.81-3.73-.07-.14-.13-.29-.2-.42C6.39,98,5.59,96.46,5.56,96.39a.46.46,0,0,1,.21-.61.46.46,0,0,1,.61.2c0,.06.87,1.72,2.3,4.66l.35.71c.42.86.89,1.82,1.39,2.86s.95,2,1.47,3.08c5.44,11.44,14.12,30.47,22.54,52.07.08.22.17.45.26.68,6.69,17.24,11.7,32.17,15.39,45.07.2.71.4,1.41.59,2.1q2.28,8.14,3.87,15.23c.12.5.23,1,.34,1.48q1.26,5.67,2.12,10.67c.07.36.13.72.19,1.07C57.74,238.91,58.19,242,58.52,244.81Z"/><path class="cls-11" d="M.8,117.14S11.65,104,21.9,103.56c0,0-11.28-12.68-15.75-12.27C6.15,91.29.28,107.3.8,117.14Z"/><path class="cls-12" d="M17.65,85.69l6.7-1.25c.95-7.52-2.68-14.85-2.68-14.85a31.12,31.12,0,0,0-9.1,6.24l4.91.15-6.92,1.83a59.13,59.13,0,0,0-6.76,8.5,18.13,18.13,0,0,0-2,4.28L7.28,88.7,1.13,93.12c-2.34,10.29-.33,24-.33,24,1.33-3.23,6.15-9.07,11.81-15.41l-6.24-.66,8.21-1.53c1.91-2.1,3.87-4.24,5.8-6.32A15.16,15.16,0,0,0,24,86.36Z"/><path class="cls-13" d="M106.92,156.35l6.42,6a82.73,82.73,0,0,0,7.58-21l-4.23-7.21,4.78,4.45c1.69-9.33,1.45-17.9-1.61-22.31,0,0-18.13,6.17-23.71,19.39q-.27.63-.57,1.29l4.73,5.78-5.66-3.84c-2.25,4.54-5.17,9.42-7.25,14.2l6.49,2.33-7.28-.4c-3,7.92-3.14,15.4,6.73,20.42,6.64,3.39,13.29-1.9,18.56-10.6Z"/><path class="cls-8" d="M117.84,119.64c0,.07-.6,1.59-1.65,4.27-.09.21-.17.42-.26.65-.31.77-.65,1.64-1,2.59s-.72,1.79-1.12,2.78c-4.2,10.31-11.4,27.24-20.42,45.52-.1.19-.19.38-.28.57-13.88,28-25.93,46.92-35.88,59.64-.25.33-.51.65-.76,1-2.46,3.09-4.77,5.8-7,8.18H48.39c2.44-2.63,5.07-5.69,7.86-9.25.25-.31.5-.64.75-1,9.82-12.67,21.69-31.36,35.34-58.94.1-.19.2-.39.29-.58,9-18.2,16.16-35,20.35-45.35.37-.9.72-1.75,1-2.55.51-1.27,1-2.4,1.34-3.37.06-.14.11-.27.16-.4,1-2.54,1.54-4,1.57-4a.42.42,0,0,1,.52-.24A.41.41,0,0,1,117.84,119.64Z"/><path class="cls-11" d="M100.8,128.58s14.94-.73,21.33,5.63c0,0,1.54-14.84-1.38-17.49C120.75,116.72,106.87,122.41,100.8,128.58Z"/><path class="cls-14" d="M131.2,120.86l4.79,3.6c5.45-3.84,8-10.54,8-10.54a27.4,27.4,0,0,0-9.45-2.21L137.4,115l-5.29-3.41a52.23,52.23,0,0,0-9.52.66,15.55,15.55,0,0,0-4,1.25l4.46,2.43-6.52-1.38c-8.06,4.59-15.78,14-15.78,14,2.88-1.06,9.54-1.39,17-1.48l-3.27-4.44,5.86,4.42c2.5,0,5,0,7.55,0a13.23,13.23,0,0,0,6.59-1.71Z"/><path class="cls-5" d="M62.14,147.68l9.51,2.76a100.9,100.9,0,0,0,3.91-20.94l-11,.44,11.26-4.34c.19-3.31.21-5.84.15-7s0-3.32-.16-5.89l-13.47-9.53,13,3.84C74,96.17,70.61,79.33,54,66.53c0,0-9.86,13.6-14.17,20.94l8.34,8.37L37.4,92.71c-1.7,5.24-3.31,14.54-4.32,22.18l10.49,7.34-11-3.2c-.33,2.93-.53,5.34-.56,6.78a87.18,87.18,0,0,0,1,17.26L43.75,143l-10,3.53c2.27,9.51,7.38,19,18.74,21.21,9,1.71,14.62-5.07,18.11-14.13Z"/><path class="cls-15" d="M56.15,146.76Q55.78,158,55.07,168c-1,15.28-2.58,28.25-4.4,39.25-.12.71-.24,1.43-.37,2.12-2.7,15.56-6,27-9.23,35.48h-1c3.41-8.75,6.86-20.87,9.64-37.56.12-.7.23-1.41.35-2.14,1.67-10.54,3.1-22.84,4.08-37.19.45-6.62.82-13.67,1.07-21.18,1.29-37.7-.79-69.62-.8-69.95a.46.46,0,0,1,.91-.06C55.36,77.06,57.44,109,56.15,146.76Z"/><path class="cls-15" d="M21.66,216.39a42,42,0,0,0,10.93,28.42H90.35a42.53,42.53,0,0,0,5.77-48.74H26.81A42.36,42.36,0,0,0,21.66,216.39Z"/><rect class="cls-16" x="21.3" y="192.47" width="80.33" height="7.53" rx="2.92"/><g class="cls-17"><polygon class="cls-5" points="448.35 191.06 447.42 158.06 157.06 158.06 153.33 191.77 131.3 191.9 131.3 257.4 470.47 257.4 470.47 189.42 448.35 191.06"/><path class="cls-5" d="M153.79,150.69H292.87c4.61,0,8.55,3,8.49,7.37-.12,8.42-.5,22.95-.49,38.05,0,26.46.49,54.65.49,54.65H158.76a7.53,7.53,0,0,1-7.42-7.06l-3.26-65.57-.81-16.29-.11-2.22-.1-1.87a6.91,6.91,0,0,1,.64-3.25A6.7,6.7,0,0,1,153.79,150.69Z"/><path class="cls-5" d="M485.6,194.05c-.62,12.08-2.79,36.25-3.41,44.63s-3.4,28.82-31.92,28.82H151.4c-28.51,0-31.3-20.46-31.92-28.82s-2.79-32.55-3.41-44.63,6.2-10.85,12.71-10.55a31.39,31.39,0,0,1,5.27.84,133.74,133.74,0,0,1,14.56,4.46l1.25,25.12c-6.33,3.22-10.87,10.53-12.06,12.62h0l-.31.56c0,17.78,2.19,21.32,13.94,21.28,7.56,0,149.41-.14,149.41-.14s141.86.12,149.42.14c11.75,0,13.94-3.5,13.94-21.28,0,0-5-9.41-12.37-13.18l1.24-25.12s13.32-5,19.83-5.3S486.22,182,485.6,194.05Z"/><path class="cls-5" d="M301.81,204.27c0,23.78-.3,46.49-.3,46.49H444.1a7.52,7.52,0,0,0,7.42-7.06l3.26-65.57.81-16.29.11-2.22.1-1.87a6.91,6.91,0,0,0-.64-3.25,6.68,6.68,0,0,0-6.08-3.81H310c-4.61,0-8.54,3-8.48,7.37"/><path class="cls-18" d="M149.86,213.92c-6.33,3.22-10.87,10.53-12.06,12.62h0l-3.74-42.2a133.74,133.74,0,0,1,14.56,4.46Z"/><path class="cls-18" d="M451.81,213.92c6.33,3.22,10.87,10.53,12.06,12.62h0l3.73-42.2a134,134,0,0,0-14.55,4.46Z"/><path class="cls-19" d="M138.24,221s-4.19,30.06,18.82,29.58c35-.73,139.15-.25,151.92.25s136.5.45,146-3,8.91-25.23,8.91-25.23Z"/><path class="cls-5" d="M300.83,218.34V241c0,4.88-2.7,6.56-7.41,6.56l-142,.81c-9.59,0-13.94-7.53-13.94-15.43v-8.9a6.94,6.94,0,0,1,.76-3.08c3.71-7.61,20.16-13.38,28.18-13.38H280.66C292.87,207.59,300.83,212.31,300.83,218.34Z"/><path class="cls-20" d="M300.83,218.34V221H138.24c3.71-7.61,20.16-13.38,28.18-13.38H280.66C292.87,207.59,300.83,212.31,300.83,218.34Z"/><path class="cls-21" d="M463.44,221H302.25v-2.63c0-3.12,2.13-5.89,5.88-7.83l.17-.07a64.31,64.31,0,0,1,9.46-2.6,40.77,40.77,0,0,1,4.67-.25H435.25C443.27,207.59,459.73,213.36,463.44,221Z"/><polygon class="cls-22" points="165.81 267.5 154.35 294.32 149.86 294.32 156.57 267.5 165.81 267.5"/><polygon class="cls-22" points="436.74 267.5 448.19 294.32 452.69 294.32 445.97 267.5 436.74 267.5"/><path class="cls-5" d="M302,218.34V241c0,4.88,2.7,6.56,7.41,6.56l142.36-.17c9.59,0,13.58-6.55,13.58-14.45v-8.9a6.94,6.94,0,0,0-.76-3.08c-3.71-7.61-20.16-13.38-28.18-13.38H322.2C310,207.59,302,212.31,302,218.34Z"/><path class="cls-20" d="M302,218.34V221H464.62c-3.71-7.61-20.16-13.38-28.18-13.38H322.2C310,207.59,302,212.31,302,218.34Z"/><polygon class="cls-4" points="183.58 177.26 182.82 171.75 183.58 165.84 184.47 171.73 183.58 177.26"/><polygon class="cls-4" points="177.93 171.55 183.45 170.79 189.36 171.55 183.47 172.44 177.93 171.55"/><path class="cls-4" d="M185.48,171.78a1.83,1.83,0,1,1-1.83-1.83A1.83,1.83,0,0,1,185.48,171.78Z"/><polygon class="cls-4" points="225.18 177.26 224.42 171.75 225.18 165.84 226.07 171.73 225.18 177.26"/><polygon class="cls-4" points="219.54 171.55 225.05 170.79 230.96 171.55 225.07 172.44 219.54 171.55"/><path class="cls-4" d="M227.08,171.78a1.83,1.83,0,1,1-1.83-1.83A1.83,1.83,0,0,1,227.08,171.78Z"/><polygon class="cls-4" points="268.53 177.26 267.77 171.75 268.53 165.84 269.42 171.73 268.53 177.26"/><polygon class="cls-4" points="262.88 171.55 268.4 170.79 274.31 171.55 268.42 172.44 262.88 171.55"/><path class="cls-4" d="M270.43,171.78A1.83,1.83,0,1,1,268.6,170,1.83,1.83,0,0,1,270.43,171.78Z"/><polygon class="cls-4" points="183.58 199.7 182.82 194.18 183.58 188.27 184.47 194.16 183.58 199.7"/><polygon class="cls-4" points="177.93 193.98 183.45 193.22 189.36 193.98 183.47 194.88 177.93 193.98"/><circle class="cls-4" cx="183.65" cy="194.21" r="1.83"/><polygon class="cls-4" points="225.18 199.7 224.42 194.18 225.18 188.27 226.07 194.16 225.18 199.7"/><polygon class="cls-4" points="219.54 193.98 225.05 193.22 230.96 193.98 225.07 194.88 219.54 193.98"/><circle class="cls-4" cx="225.25" cy="194.21" r="1.83"/><polygon class="cls-4" points="268.53 199.7 267.77 194.18 268.53 188.27 269.42 194.16 268.53 199.7"/><polygon class="cls-4" points="262.88 193.98 268.4 193.22 274.31 193.98 268.42 194.88 262.88 193.98"/><path class="cls-4" d="M270.43,194.21a1.83,1.83,0,1,1-1.83-1.83A1.82,1.82,0,0,1,270.43,194.21Z"/><polygon class="cls-4" points="336.11 177.26 335.35 171.75 336.11 165.84 337.01 171.73 336.11 177.26"/><polygon class="cls-4" points="330.47 171.55 335.98 170.79 341.89 171.55 336 172.44 330.47 171.55"/><path class="cls-4" d="M338,171.78a1.83,1.83,0,1,1-1.83-1.83A1.83,1.83,0,0,1,338,171.78Z"/><polygon class="cls-4" points="377.72 177.26 376.96 171.75 377.72 165.84 378.61 171.73 377.72 177.26"/><polygon class="cls-4" points="372.07 171.55 377.58 170.79 383.5 171.55 377.61 172.44 372.07 171.55"/><path class="cls-4" d="M379.61,171.78a1.83,1.83,0,1,1-1.83-1.83A1.83,1.83,0,0,1,379.61,171.78Z"/><polygon class="cls-4" points="421.06 177.26 420.31 171.75 421.06 165.84 421.96 171.73 421.06 177.26"/><polygon class="cls-4" points="415.42 171.55 420.93 170.79 426.85 171.55 420.95 172.44 415.42 171.55"/><path class="cls-4" d="M423,171.78a1.83,1.83,0,1,1-1.83-1.83A1.83,1.83,0,0,1,423,171.78Z"/><polygon class="cls-4" points="336.11 199.7 335.35 194.18 336.11 188.27 337.01 194.16 336.11 199.7"/><polygon class="cls-4" points="330.47 193.98 335.98 193.22 341.89 193.98 336 194.88 330.47 193.98"/><circle class="cls-4" cx="336.18" cy="194.21" r="1.83"/><polygon class="cls-4" points="377.72 199.7 376.96 194.18 377.72 188.27 378.61 194.16 377.72 199.7"/><polygon class="cls-4" points="372.07 193.98 377.58 193.22 383.5 193.98 377.61 194.88 372.07 193.98"/><circle class="cls-4" cx="377.78" cy="194.21" r="1.83"/><polygon class="cls-4" points="421.06 199.7 420.31 194.18 421.06 188.27 421.96 194.16 421.06 199.7"/><polygon class="cls-4" points="415.42 193.98 420.93 193.22 426.85 193.98 420.95 194.88 415.42 193.98"/><path class="cls-4" d="M423,194.21a1.83,1.83,0,1,1-1.83-1.83A1.82,1.82,0,0,1,423,194.21Z"/></g></g><g id="OBJECTS"><ellipse class="cls-3" cx="378.6" cy="370.55" rx="71.72" ry="11.54"/><path class="cls-23" d="M327.58,264.7s1.39-1.36,3,2.17,4.66,17,10.4,15.84,7.81-11.51,8-16,2-12.32-4-9.25-9.69,4.52-13.26,4S328,262.34,327.58,264.7Z"/><path class="cls-24" d="M354.2,341.72a53,53,0,0,1-4.34,20.78,10.06,10.06,0,0,1-8.57,6.06c-5.1.33-11.74.22-11.63-2.6.19-4.57,8.6-3.29,8.6-3.29s2.56-.36,6.59-12.8c1.79-5.55.68-11.47-1.11-16.33a46.83,46.83,0,0,0-5.25-10.11l-.23-.32s.25-.37.68-.9a13.35,13.35,0,0,1,2.89-2.65,6.34,6.34,0,0,1,2.51-1c2.85-.38,6.13,1.9,8.5,11.68A48.86,48.86,0,0,1,354.2,341.72Z"/><path class="cls-25" d="M354.2,341.72a12.07,12.07,0,0,1-1.55-1.79c-2.34-2.83-5.92-4.26-8.91-6.39a46.83,46.83,0,0,0-5.25-10.11,4.26,4.26,0,0,1,.2-.67,5.45,5.45,0,0,1,.25-.55,6.93,6.93,0,0,1,2.89-2.65l.46-.23a12.33,12.33,0,0,1,2-.77c2.85-.38,6.13,1.9,8.5,11.68A48.86,48.86,0,0,1,354.2,341.72Z"/><path class="cls-24" d="M412.47,346.83a61,61,0,0,1-1.59,11.81c-.88,3.75-2.18,7.28-6.24,8.44-5.49,1.57-12.75,3.08-13.24.3-.8-4.51,8.66-5.31,8.66-5.31s2.71-1,4.39-14.09a20.24,20.24,0,0,0-2.4-11.76,36,36,0,0,0-4.52-6.72,44,44,0,0,0-6.09-6s8.83-16.72,17.46,3.41a2.44,2.44,0,0,0,.1.24A46.72,46.72,0,0,1,412.47,346.83Z"/><path class="cls-25" d="M412.47,346.83a11.21,11.21,0,0,1-3.71-2.58,13.59,13.59,0,0,1-2.31-4.35c-.57-1.53-1.12-3.06-1.62-4.61a9.4,9.4,0,0,1-2.78.93,36,36,0,0,0-4.52-6.72,5.59,5.59,0,0,1,.46-1,5.82,5.82,0,0,1,3.79-2.79,8.21,8.21,0,0,1,3.38.13,18,18,0,0,1,3.84,1.26A46.72,46.72,0,0,1,412.47,346.83Z"/><path class="cls-26" d="M420.48,323.11c-.55,10.28-28.26,15.79-54.33,16.06-7.69.08-13.39-1.7-17.62-4.25a25.75,25.75,0,0,1-11.73-16.6s-.18-1.44-.55-3.55c-1-5.74-3.38-16.4-7.34-16.2-3.61.18-9.72-.25-14.62-3.05-.39-.22-.78-.46-1.15-.71a14.17,14.17,0,0,1-4.87-5.57,12.82,12.82,0,0,1-1.1-3.2,6.77,6.77,0,0,1,4.39-7.78h.23a18.38,18.38,0,0,0,3.17-.43,15.47,15.47,0,0,0,2.05-.6,9.14,9.14,0,0,0,6.07-6.1,12.33,12.33,0,0,1,1.44-3.39,9.83,9.83,0,0,1,1-1.3c2.95-3.29,8-4.38,15.41-5.18,10.15-1.1,9.88,6,9.88,6s.52,1.79,1.2,5.47c.47,2.56,1,6,1.54,10.44a17.65,17.65,0,0,0,.35,1.95c1.37,5.69,5.71,10.19,12.53,13.15a44.51,44.51,0,0,0,8.76,2.66,77.75,77.75,0,0,0,18.69,1.18,47.59,47.59,0,0,1,11.6.69,24.57,24.57,0,0,1,6,2C419.5,308.71,420.84,316.25,420.48,323.11Z"/><path class="cls-26" d="M342,324.18s14.69,11.4,13,24.52-4.4,14.09-4.4,14.09-9.45.8-8.66,5.31c.49,2.78,7.75,1.27,13.25-.3,4.06-1.15,5.36-4.69,6.24-8.44,1.65-7.09,3.32-19.38-2-31.77C350.85,307.46,342,324.18,342,324.18Z"/><path class="cls-26" d="M426.42,369.38c-3.29.92-4.94-.36-4.57-7.13s-3.66-11.89-12.25-20.39S407.4,316,407.4,316c10.06-9.51,13.13,2.8,13.17,6,0,1.35-1.15,7.89-.85,14.29.23,4.92,1.33,9.74,4.51,12.05a10,10,0,0,1,1.95,1.89C431.16,356.53,429.38,368.56,426.42,369.38Z"/><path class="cls-26" d="M412.49,271.59s12.07-2.2,12.8,12.8S414,307.8,406.63,309.26l9.35,9.26s18.45-13.28,18.45-30.11S423.44,263.9,412.49,271.59Z"/><path class="cls-27" d="M311.54,282.19a8.06,8.06,0,0,1-3.58,3.54,4.09,4.09,0,0,1-.78.31,6.75,6.75,0,0,1,4.38-7.78h.23C312.4,279.37,312,281.2,311.54,282.19Z"/><path class="cls-23" d="M334,281.67a5,5,0,0,1-1.76.9,22,22,0,0,1-4.24,1,9.09,9.09,0,0,1-5.41-.57c-.63-.34-1.15-.8-1.78-1.14-1.53-.81-3.67-.88-4.83-2a4.07,4.07,0,0,1-1-2,15.14,15.14,0,0,0,2.05-.61,9.14,9.14,0,0,0,6.08-6.09,12.07,12.07,0,0,1,1.44-3.39,9,9,0,0,1,1-1.3c.68.56,1.31,1.16,1.94,1.77,3.17,3,6.45,6.27,7.24,10.35A3.19,3.19,0,0,1,334,281.67Z"/><path class="cls-6" d="M329.39,276.89c-.44,1.77-1.77,3-2.95,2.66s-1.79-2-1.34-3.74,1.76-2.95,2.95-2.65S329.83,275.13,329.39,276.89Z"/><path d="M328,276.67c-.26,1-1,1.74-1.74,1.56s-1.05-1.16-.79-2.2,1-1.73,1.74-1.56S328.3,275.63,328,276.67Z"/><path class="cls-23" d="M411.47,304.79a3.84,3.84,0,0,1-1.27,2c-2,1.59-4.91.88-7.28,1.77-4.54,1.69-5.92,8.71-10.74,9.25-3.91.44-6.51-3.73-9.58-6.2-4.22-3.41-10.05-3.74-15.47-4a6.44,6.44,0,0,1-3.6-.93c-3.49-2.79-.37-6.32,2.89-8.32a43.1,43.1,0,0,0,8.75,2.66,77.36,77.36,0,0,0,18.7,1.18,48.11,48.11,0,0,1,11.6.7A24.29,24.29,0,0,1,411.47,304.79Z"/><path class="cls-23" d="M348.54,334.92a25.74,25.74,0,0,1-11.74-16.6s-.18-1.44-.54-3.55c1.71-1.56,3.35-2.14,5-.37,1.24,1.3,1.46,4.05,2.35,5.64,1.11,2,2.94,3.07,4.21,4.87a8.12,8.12,0,0,1,1.16,4.58A25.4,25.4,0,0,1,348.54,334.92Z"/><path class="cls-23" d="M426.18,350.24c-1.25,0-2.58.43-3.71-.11a3.59,3.59,0,0,1-1.65-2.18c-.3-.89-.44-1.83-.8-2.69a25.91,25.91,0,0,0-2.2-3.43,4.14,4.14,0,0,1-.55-3.88,2.67,2.67,0,0,1,2.45-1.65c.23,4.92,1.33,9.74,4.51,12.05A10,10,0,0,1,426.18,350.24Z"/><path class="cls-28" d="M353.88,285.14c-.56.84-1.11,1.7-1.74,2.49a7.2,7.2,0,0,1-4.17,2.84,6.09,6.09,0,0,1-4.86-1.55,12.53,12.53,0,0,1-3-4.29,27.41,27.41,0,0,1-2.48-9.94,9.93,9.93,0,0,0-.35-2.67,3.06,3.06,0,0,0-.88-1.35c-.38-.33-1-.32-.65-.86a2.78,2.78,0,0,1,2.57-1,8.74,8.74,0,0,1,3.18,1.2c1.28.66,2.59,1.27,3.89,1.88a10.76,10.76,0,0,0,2.88,1,17.75,17.75,0,0,0,3.71-.13c.47,2.55,1,6,1.55,10.44A15.41,15.41,0,0,0,353.88,285.14Z"/><path class="cls-23" d="M335.51,270.25s1.51-1.22,2.74,2.45,3,17.36,8.82,16.77,8.88-10.69,9.56-15.19,3.2-12.07-3.05-9.59-10.08,3.56-13.59,2.68S336.13,267.94,335.51,270.25Z"/><g class="cls-29"><path d="M324.27,292.47c-1.36,2.65-4.42,3.29-7.06,3.29a18.6,18.6,0,0,1-2.92-.24c-.39-.22-.78-.46-1.15-.71,1.75.36,8.59,1.51,10.68-2.57a.24.24,0,0,1,.34-.1A.25.25,0,0,1,324.27,292.47Z"/></g><ellipse class="cls-3" cx="154.3" cy="370.55" rx="135.74" ry="11.54"/><path class="cls-23" d="M58,121.27a25,25,0,0,0-.94,3.56c-1.15,6.16-.59,12.57-2.08,18.65-1.41,5.74-4.56,10.87-7.11,16.21a36.11,36.11,0,0,0-3.56,11c-.45,3.73.14,7.48-.22,11.24-.62,6.53-3.12,12.73-5.6,18.83,8-3.54,17.13-4.18,25.84-3s17,4.15,25.11,7.55a42.06,42.06,0,0,0,8.95,3.06,38.81,38.81,0,0,0,9,.13,5,5,0,0,0,2.47-.58,3.78,3.78,0,0,0,1.34-1.87c1.1-2.84.72-6,.68-9-.25-17.28,10.94-34,7.51-51-2.48-12.31-4.54-27.34-13.35-36.9a24,24,0,0,0-7.72-5.9c-9.61-4.24-21.67.19-29.89,5.6C63.38,112.16,59.82,116,58,121.27Z"/><path class="cls-30" d="M213.27,262.93c.54-1.71-5-2.87-7.74-4s-3.11-1.68-2.68-1.85,6.44,1.16,9.1,2,6.85,2.15,7.35.31-3.81-2.9-7.38-4.07-7.19-1.44-7-2.31,13.74,1.85,14.76,2,4.3.8,4.69-.81-2.46-2.43-4-2.84-5.69-1.36-9.25-1.94-4.71-.76-4.72-1.34,8.35-.39,11.38-.24,5.88-.43,5.4-2.29-6.3-1.64-9.62-1.74-9.07-.25-11.32-.84-4.39-.65-3.92-1.76h0c.1-.26.16-.47.2-.6.22-.8,2-2.18,3.47-2.92a6.57,6.57,0,0,0,2.87-4.22c.28-1.43-.41-2.47-3.1-.17A24.18,24.18,0,0,1,191.64,238c-2.78.41-4.58.44-6.06,3.05-.49.86-14.13-2.85-17.35-3.41-4.08-.72,1.16,11.87,3.72,12.39s10.36,1.24,12.41,2.62c1.4.93,1.82,2.37,6,4.24,2.08.93,6.17,2.45,9.6,3.67,0,0,6.46,2.33,9,3S212.73,264.63,213.27,262.93Z"/><path class="cls-30" d="M180.14,240.36l-2.58,10.54s-42-6.4-53.84-9.36c-5.71-1.42-17.07-7.49-27.33-13.41-11.11-6.4-20.94-12.63-20.94-12.63l17.76-21.64,36.16,34.92,16.56,3.78Z"/><path class="cls-28" d="M145.93,232.56c-5.28,1.78-11.16,1-16.7-.09-11.56-2.2-23.19-5.4-32.94-12-.42-.28-1.11-.51-1.32-.06-.37.78.55,2.93.74,3.75s.46,1.87.59,2.83a7.7,7.7,0,0,1,.09,1.14c-11.11-6.4-20.94-12.63-20.94-12.63l17.76-21.64,36.16,34.92Z"/><path class="cls-31" d="M273.1,369.81c-13.58,5.91-40.46,4.82-48.05.3-3.83-2.29,1.18-10.93,1.18-10.93l-.06-.16c-1-2.6-6.7-6.32-11.08-8.87-2.91-1.68-5.24-2.86-5.24-2.86l11.52-11.43s1.89,2,5,5c7.51,7.12,22.14,19.57,34.4,21.69a19.39,19.39,0,0,0,3.59.32C275.76,362.8,273.1,369.81,273.1,369.81Z"/><path class="cls-32" d="M273.1,369.81c-13.58,5.91-40.46,4.82-48.05.3-3.83-2.29,1.18-10.93,1.18-10.93l-.06-.16c2,.77,4,2.19,5.72,3a57.82,57.82,0,0,0,23.76,4.92c1.67,0,3.68-.31,4.37-1.83.31-.65.3-1.41.55-2.08a2.58,2.58,0,0,1,.22-.44,19.39,19.39,0,0,0,3.59.32C275.76,362.8,273.1,369.81,273.1,369.81Z"/><path class="cls-25" d="M226.39,340.86c-2.18,2.06-4.68,3.74-7,5.63-1.43,1.17-2.81,2.53-4.32,3.66-2.91-1.68-5.24-2.86-5.24-2.86l11.52-11.43S223.26,337.9,226.39,340.86Z"/><path class="cls-31" d="M89.62,165.46,80.06,193,57.59,190.8S71,162.05,70.26,147.3Z"/><path class="cls-25" d="M87.51,171.51s-14.83-8.07-16.69-15.84c0,0-.08,13.72,16,17.93Z"/><path class="cls-31" d="M102.17,114.31s7.88,19,4.3,37.65-14.1,23.66-26.41,16.85-13.39-31.2-8.73-42.67S88.54,107.86,102.17,114.31Z"/><path class="cls-31" d="M62.94,141a5.78,5.78,0,1,0,5.78-5.78A5.78,5.78,0,0,0,62.94,141Z"/><circle class="cls-31" cx="105.33" cy="142.36" r="5.36"/><path class="cls-31" d="M95.58,188,81.49,212.16s38.36,17.65,50.57,18.69,57.93-.16,57.93-.16l.82-11.05-54.32-4.38Z"/><path class="cls-31" d="M81,362.83a3.38,3.38,0,0,1-3,1.85c-4.81.08-21,.26-24.78-1.25-4.42-1.77-12.46-13.62-14.78-17.94-1.1-2,.32-4,2.13-5.44a22.25,22.25,0,0,1,4.57-2.75h.07l23.5-2.4,2.45-.25,1.42,8.21.24,1.41s-.41,0-1.08.1c-2.42.3-8.2,1.5-9.77,6.1-1.5,4.43,3.35,5.08,9.2,6.32A46.61,46.61,0,0,1,77,358.34C81.26,359.84,81.59,361.56,81,362.83Z"/><path class="cls-32" d="M81,362.83a3.38,3.38,0,0,1-3,1.85c-4.81.08-21,.26-24.78-1.25-4.42-1.77-12.46-13.62-14.78-17.94s6.7-8.19,6.7-8.19h.07c.6,1.23,1,2.81,1.59,4L50.49,348a26.74,26.74,0,0,0,4.9,7,13.56,13.56,0,0,0,13.54,2.71c.76-.28,1.48-.62,2.21-.95A46.61,46.61,0,0,1,77,358.34C81.26,359.84,81.59,361.56,81,362.83Z"/><path class="cls-33" d="M114.78,339c-34.46,9.41-42.43,7.42-42.43,7.42l-.64-2-.43-1.32-2.6-8.15L68,332.76s50.18-34.24,71.14-31.89a28.6,28.6,0,0,1,2.1,10C141.52,319.89,137.49,332.76,114.78,339Z"/><path class="cls-25" d="M141,307.77c-3.45,1.4-6.85,5.44-10,7.45-4.67,3-8.81,8-13.4,11-8.28,5.57-15.12,8.22-25,11.44a126.53,126.53,0,0,1-20,5.15c-.42.07-.85.14-1.27.19-2.15.31-4.32.55-6.5.69A59.36,59.36,0,0,1,44.61,342a14.34,14.34,0,0,1-4.07-1.9,22.25,22.25,0,0,1,4.57-2.75h.07l23.5-2.4L68,332.76s50.18-34.24,71.14-31.89C139.14,300.87,140.8,302,141,307.77Z"/><path class="cls-31" d="M77.74,281.39l-1,3.76c-28.12,12.63-43-4-43-4a59,59,0,0,0,1.09-6.43c.77-6.07,1.2-13,1.2-13l40.08,9a21.51,21.51,0,0,0,.55,7.57A16.49,16.49,0,0,0,77.74,281.39Z"/><path class="cls-6" d="M57.81,180.29A7.59,7.59,0,0,0,53,182.52C48.64,187,38.42,199.28,33.61,221c-6.58,29.76-.67,50.84-.67,50.84s16.09,9.52,45.94,3.65c0,0-1.14-22.91,6.24-31.92,5.77-7,13.87-5.31,8-25.09S97.81,189,97.81,189,77,178.74,57.81,180.29Z"/><path class="cls-34" d="M33.75,281.1a171.1,171.1,0,0,1-5.61,19.19c-3.54,9.74-5.61,41.33,29.23,41.33s64.95-21.26,69.67-26,13.28-8.56,18.3-8.56c0,0,17.13,29.82,68.2,43.4l12.4-14.18s-44.58-29.52-55.21-46.94-24.21-22.43-40.44-15.94-52.55,8-52.55,8S60.32,291.73,33.75,281.1Z"/><path class="cls-25" d="M76.66,278.26c-7.29,1.23-14.82.84-22.21.32-2.17-.16-4.33-.32-6.49-.5-4.44-.35-9-.86-12.86-3.23l-.27-.18c.77-6.07,1.2-13,1.2-13l40.08,9A21.51,21.51,0,0,0,76.66,278.26Z"/><path class="cls-31" d="M230.82,236.9c.27-1.76-5.4-2-8.27-2.73s-3.34-1.16-2.94-1.4,6.54.14,9.3.5,7.1,1,7.31-.85-4.22-2.26-7.93-2.85-7.33-.3-7.3-1.19,13.86-.33,14.89-.35,4.37.11,4.5-1.53-2.81-2-4.35-2.19-5.84-.44-9.45-.46-4.76,0-4.87-.58,8.18-1.7,11.21-2,5.73-1.36,5-3.12-6.48-.63-9.78-.2-9,1.17-11.31.95-4.44.05-4.14-1.13h0a6.1,6.1,0,0,0,.09-.62c.1-.82,1.65-2.47,3-3.42a6.58,6.58,0,0,0,2.18-4.62c0-1.46-.8-2.38-3.1.32a24.11,24.11,0,0,1-9.26,6.29c-2.68.85-4.46,1.15-5.51,4-.34.92-14.48-.64-17.75-.69-4.13-.07-10.41,11.94-7.81,12s25.21-1.08,26.19.29,2.17,2.06,6.56,3.25c2.2.59,6.48,1.45,10.06,2.12,0,0,6.74,1.28,9.37,1.52S230.56,238.67,230.82,236.9Z"/><path class="cls-23" d="M72,180.25a62.27,62.27,0,0,1-1.31,10.06q-1.1,5.88-2.2,11.75a3.36,3.36,0,0,1-.44,1.35c-.88,1.33-2.88.92-4.45.63A17.37,17.37,0,0,0,58,204a49.41,49.41,0,0,0-5.65,1.22c-1.87.49-3.74,1-5.65,1.32a18.71,18.71,0,0,1-6.59.06,3.18,3.18,0,0,1-1.34-.48,5.38,5.38,0,0,1-.86-.86,2.17,2.17,0,0,1-.43-.61,2,2,0,0,1,.16-1.33c.13-.44.25-.88.38-1.32.3-.92.63-1.83,1-2.73.71-1.81,1.48-3.6,2.16-5.43,2.37-6.42,3.5-14.63,7.44-20.23,2.64-3.75,7.38-5.78,9.51-9.84,1-1.94,1.34-4.16,2.22-6.16,1.18-2.7,2.52-5.36,5.28-6.46,4.7-1.87,4.69,1.72,4.31,5.24C69.07,164.41,72.19,172.24,72,180.25Z"/><path class="cls-35" d="M98.41,141.23c.15,1.93,1.41,3.32,2.83,3.11s2.44-1.94,2.3-3.86-1.42-3.32-2.83-3.11S98.26,139.31,98.41,141.23Z"/><path class="cls-35" d="M85.29,140.42c-.2,1.94.81,3.55,2.26,3.59s2.77-1.49,3-3.43S89.69,137,88.25,137,85.48,138.49,85.29,140.42Z"/><path class="cls-35" d="M105.59,136.18l.51-1.11a32.08,32.08,0,0,0-7.88-3.16.91.91,0,0,0-1.08.61h0a.91.91,0,0,0,.69,1.18A43.76,43.76,0,0,1,105.59,136.18Z"/><path class="cls-35" d="M81.94,136.11,81.49,135a32.18,32.18,0,0,1,8.05-2.73.9.9,0,0,1,1,.67h0a.91.91,0,0,1-.75,1.14A43,43,0,0,0,81.94,136.11Z"/><path class="cls-36" d="M87.86,157a36.74,36.74,0,0,0,13.29-.07s-1.11,5.89-6.61,5.91A6.65,6.65,0,0,1,87.86,157Z"/><path class="cls-6" d="M94.67,159.81c4.23,0,5.46-1.79,6-2.75-5,1-9,.44-12.46,0C88.58,158.15,90.67,159.83,94.67,159.81Z"/><path class="cls-37" d="M94.83,140.56c-.19,1.87-.36,3.87.58,5.5.59,1,1.63,1.89,1.79,3.08A3,3,0,0,1,95.58,152a6.29,6.29,0,0,1-3.4.61"/><circle class="cls-25" cx="68.72" cy="141.02" r="2.83"/><path class="cls-25" d="M86.05,119.3s3.36,5.74,20.21,9.93l-.26-1.46S89.64,118.94,86.05,119.3Z"/><path class="cls-23" d="M80.57,115.2s13.72,12,28.23,12.87c0,0-1.33-19.93-15.15-20.38S80.57,115.2,80.57,115.2Z"/><path class="cls-23" d="M79.44,128.8c-2.27,1.69-4.66,3.75-7.13,4.61a15.85,15.85,0,0,1-5.38,1.33c-.84,0-1.85-1.46-2.67-1.63l-4.21-.85a.57.57,0,0,1-.37-.18,1.08,1.08,0,0,1-.11-.79,20,20,0,0,1,1.35-6.51c1.43-3.16,4.34-5.11,5.58-8.38.35-.91.55-1.88.93-2.77,1.24-2.83,4-4,6.41-4.48C78,108.38,85,109.22,86.4,115,87.63,119.81,82.63,126.42,79.44,128.8Z"/></g></g></svg>