<svg xmlns="http://www.w3.org/2000/svg" viewBox="0 0 403.72 396.04"><defs><style>.cls-1{fill:#bf3d3d;}.cls-2{fill:#f85555;}.cls-3{fill:#dd4e4e;}.cls-4{fill:#af2828;}.cls-5{fill:#fcb17e;}.cls-6{fill:#e5a173;}.cls-7{fill:#8c623a;}.cls-8{fill:#7a4e29;}.cls-9{fill:#cc7b44;}.cls-10{fill:#e0905a;}.cls-11{fill:#f99680;}.cls-12{fill:#c97c47;}.cls-13{fill:none;stroke:#8c623a;stroke-miterlimit:10;stroke-width:7.17px;}.cls-14{fill:#dd795b;}.cls-15{fill:#e09a69;}.cls-16{fill:#5e5049;}.cls-17{fill:#4f413b;}.cls-18,.cls-19{fill:#f7931d;}.cls-19{stroke:#f7931d;}.cls-19,.cls-20{stroke-linecap:round;stroke-linejoin:round;stroke-width:0.72px;}.cls-20{fill:#db7f1b;stroke:#db7f1b;}.cls-21{fill:#42322a;}</style></defs><g id="OBJECTS"><path class="cls-1" d="M296.94,151.53s-73.88,61.76-92.56,60.89-103.1-53.93-103.1-53.93l-12.18,20s74.69,87,119.34,93.94c30.86-.87,110.42-73.94,110.42-73.94"/><path class="cls-2" d="M232.88,396s-12.54-185.4,24.18-211.37,56.42-35.83,56.42-35.83,3.58,1.08,31.16,30.68A65.49,65.49,0,0,1,356,196.4c18.62,39.69,30.6,101.69,47.68,199.64Z"/><path class="cls-3" d="M255.51,185.89c-.44.37-.86.77-1.28,1.19l-.2.2c-.42.43-.83.88-1.23,1.36l-.14.16c-5.84,6.95-10.18,18.53-13.4,32.77,11.28,1.49,54.48,2.41,85.87-62.35-10-9.87-11.64-10.38-11.64-10.38s-19.71,9.85-56.43,35.83a17.19,17.19,0,0,0-1.38,1.08Z"/><path class="cls-3" d="M231.36,362.24c14.72-.9,46.5-5.63,48.55-29.73l-49,5.86C231,347,231.14,355,231.36,362.24Z"/><polyline class="cls-3" points="266.42 303.73 265.12 305.36 326.25 255.2 250.34 306.48"/><path class="cls-4" d="M232.88,396c-2.22-18-3.41-36-4.06-54.13-.37-9.05-.43-18.1-.46-27.16s.26-18.12.62-27.18,1.05-18.11,2-27.14q.7-6.78,1.65-13.53c.61-4.51,1.33-9,2.21-13.47A162.91,162.91,0,0,1,241.89,207a72.48,72.48,0,0,1,5.94-12.37,42.37,42.37,0,0,1,4-5.55,27.3,27.3,0,0,1,5.18-4.43,27,27,0,0,0-4.55,4.94,42.14,42.14,0,0,0-3.38,5.76,75.89,75.89,0,0,0-4.74,12.49c-1.27,4.28-2.31,8.64-3.17,13s-1.64,8.8-2.27,13.24c-1.24,8.88-2.26,17.8-2.93,26.76s-1.31,17.94-1.67,26.93-.71,18-.92,27-.3,18-.43,27C232.85,359.89,232.88,377.94,232.88,396Z"/><path class="cls-5" d="M297.82,60c50,66.31,34.46,105.87-1.24,132.8S227.73,225.43,172.33,152c-35-46.42-27.54-88.66,8.16-115.58S262.81,13.6,297.82,60Z"/><path class="cls-6" d="M214.75,188.45c-2.07-17.75-3.1-39.18-15.52-51-11.77-11.21-24.21-18.54-40.55-21-6.94-17.37-7.94-33.75-3.8-48.5a66.16,66.16,0,0,0-5.3,26.62c.26,14.83,5.35,30.86,15.94,47.55l.77,1.21,1,1.55c.65,1,1.31,1.93,2,2.9l.64.89c.77,1.09,1.57,2.19,2.39,3.28h0q1.42,1.89,2.84,3.72l.82,1.05c.68.87,1.35,1.73,2,2.58.28.37.57.72.86,1.08.67.85,1.35,1.69,2,2.52l.73.88c.77.95,1.54,1.87,2.3,2.79l.38.45c48.35,57.4,79.22,50.69,112.27,25.77.71-.54,1.41-1.08,2.1-1.63C272.92,209.38,247.94,215.46,214.75,188.45Z"/><path class="cls-7" d="M237.71,2.36a60.28,60.28,0,0,0-12.39,5.5,27,27,0,0,0-45.74,15.51,28.26,28.26,0,0,0-35.45,31.08,38.72,38.72,0,0,0-35,10.53,39.42,39.42,0,0,0-5,49.24c12.67,19,37,21.26,56.07,9.6C187,107.41,212.36,86.07,229,70.94c10.91-9.92,24.4-13.67,31.81-.92,14.25,24.52,38,23.7,38,23.7s27.36-3.84,6.89-33.17S264.21-7.35,237.71,2.36Z"/><path class="cls-8" d="M173.34,114.86c-19.06,11.66-43.4,9.42-56.06-9.6a39.41,39.41,0,0,1,4.49-48.66A38.67,38.67,0,0,0,109.13,65a39.42,39.42,0,0,0-5,49.24c12.67,19,37,21.26,56.07,9.6,7.1-4.34,14.07-9,20.83-13.87C178.49,111.62,175.93,113.28,173.34,114.86Z"/><path class="cls-9" d="M208,130.47a37.43,37.43,0,0,1,8,13.26,24.9,24.9,0,0,1,1.43,8,12.94,12.94,0,0,1-.74,4.45,7.64,7.64,0,0,1-8.26,5.2,13.32,13.32,0,0,1-4.33-1.25,24.49,24.49,0,0,1-6.62-4.77,37.28,37.28,0,0,1-8.5-12.93,83.82,83.82,0,0,0,10.91,10.12,26.48,26.48,0,0,0,6,3.48c2,.84,4.07,1,5.12.26s1.87-2.54,2-4.73a26.94,26.94,0,0,0-.54-6.9A84.5,84.5,0,0,0,208,130.47Z"/><path class="cls-9" d="M244.39,100a37.35,37.35,0,0,1,10.68,11.2,24.7,24.7,0,0,1,3.16,7.53,13.33,13.33,0,0,1,.24,4.5,7.64,7.64,0,0,1-6.92,6.88,13.38,13.38,0,0,1-4.51-.28,24.62,24.62,0,0,1-7.5-3.21,37.33,37.33,0,0,1-11.12-10.76,84.47,84.47,0,0,0,12.86,7.49,27.58,27.58,0,0,0,6.6,2.1c2.16.37,4.19.07,5.06-.87s1.26-2.88.91-5a27.1,27.1,0,0,0-2-6.62A84,84,0,0,0,244.39,100Z"/><path class="cls-10" d="M233.79,156.61a25.78,25.78,0,0,1-6.84-8.28,22,22,0,0,1-2-5.25,11.3,11.3,0,0,1-.31-3.17A6.56,6.56,0,0,1,225,138a4.46,4.46,0,0,1,3.9-2.94,6.47,6.47,0,0,1,2,.14,11.79,11.79,0,0,1,3,1.16,22,22,0,0,1,4.49,3.39,25.71,25.71,0,0,1,6.08,8.86c-2.87-2.15-5.59-4.18-8.38-6a31.39,31.39,0,0,0-4.17-2.28,8,8,0,0,0-1.9-.61,2,2,0,0,0-.6,0c-.12,0-.09,0,0,0s.06-.09,0,0a1.79,1.79,0,0,0-.13.59,7.59,7.59,0,0,0,.06,2,31.29,31.29,0,0,0,1.05,4.64C231.3,150.09,232.51,153.26,233.79,156.61Z"/><circle class="cls-11" cx="272.73" cy="129.59" r="12.05" transform="translate(-28.88 115.16) rotate(-22.68)"/><circle class="cls-11" cx="218.1" cy="179.74" r="12.05" transform="translate(-63.22 206.86) rotate(-45)"/><path class="cls-12" d="M222.13,181.09a136.1,136.1,0,0,0,21.32-1.7c6.89-1.23,13.68-3.17,19.2-6.91a24,24,0,0,0,6.85-6.93,27.31,27.31,0,0,0,3.61-9.21c1.18-6.72.55-13.9-.62-21.05a43.67,43.67,0,0,1,4.26,21.55,27.16,27.16,0,0,1-3.44,11,26.24,26.24,0,0,1-8,8.49,36.69,36.69,0,0,1-10.4,4.75,52.16,52.16,0,0,1-11,1.9A66.5,66.5,0,0,1,222.13,181.09Z"/><path class="cls-13" d="M184.22,144.31s-8.64-19.69,13.75-28.83"/><path class="cls-13" d="M249.54,95.66S233,81.94,218.05,101"/><path class="cls-5" d="M329,79.13c6.82,9.05,5.46,27.81-3.58,34.63s-25.42,1.88-32.25-7.16S297.8,77.77,306.85,71,322.19,70.09,329,79.13Z"/><path class="cls-14" d="M314.38,106.3a10.55,10.55,0,0,1-8.41-2.79,11.2,11.2,0,0,1-2.71-3.8,11.76,11.76,0,0,1-1-4.61,12.07,12.07,0,0,1,1-4.6A11.5,11.5,0,0,1,306,86.69a10.58,10.58,0,0,1,8.41-2.78A12,12,0,0,0,307,87.68a11,11,0,0,0,0,14.85A12,12,0,0,0,314.38,106.3Z"/><path class="cls-14" d="M303.63,99.58a14.46,14.46,0,0,1,3.16-5.09,12.82,12.82,0,0,1,5.14-3.41,11.83,11.83,0,0,1,3.11-.56,11.54,11.54,0,0,1,3.11.4A12.48,12.48,0,0,1,323.34,94a23,23,0,0,0-5.48-1.69,11.24,11.24,0,0,0-5.35.49,15.13,15.13,0,0,0-4.77,2.73A32.2,32.2,0,0,0,303.63,99.58Z"/><path class="cls-15" d="M331.67,104.45a16.17,16.17,0,0,1-2,5.77,13.69,13.69,0,0,1-10,6.92,15.5,15.5,0,0,1-6.11-.23,36.88,36.88,0,0,0,5.81-1.13,17.11,17.11,0,0,0,9.18-6.34A41.66,41.66,0,0,0,331.67,104.45Z"/><path class="cls-16" d="M0,396c-.89-17.91,53.74-81.5,77-167.49l15.22-33.13L189,237.51S175.56,364.69,146.9,396Z"/><path class="cls-17" d="M171.11,338.87l-56.9-23S142.4,353.19,163,365.64C165.93,357.41,168.65,348.33,171.11,338.87Z"/><path class="cls-17" d="M77,228.85c-1.56,5.72-3.27,11.33-5.08,16.85C85,259.48,132.82,308.06,173.5,329.2c4.53-19.13,8.05-38.9,10.58-55.17-32-11.4-102.27-52.64-102.27-52.64Z"/><path class="cls-18" d="M26.3,358.38c5.29,2.27,12.64.77,14.82-4.57,1.24-3,1.1-7.34,4.18-8.5,3.23-1.21,6,2.46,8.26,5,6.19,6.83,18.19,7.15,24.72.65s6.28-18.5-.52-24.72c-1.66-1.51-3.68-2.78-4.65-4.81-1.39-2.91-.15-6.39,1.54-9.13,3.44-5.59,8.82-10.19,10.44-16.56,1.56-6.14-.88-12.82-5.16-17.5s-10.16-7.59-16.19-9.57l-.25-.08C49.86,302.72,33.06,331.8,20.11,354A20.18,20.18,0,0,0,26.3,358.38Z"/><path class="cls-16" d="M112,313.64s47.46,35.83,76.13,36.72,80.6-1.19,88.66-12.54c5.53-6,17.92-39.41-30.45-34.93l-50.44,2.33A28.77,28.77,0,0,1,181.2,302l-49.53-26"/><path class="cls-17" d="M277.21,330.66c-8.06,11.34-60,13.43-88.67,12.54-24.86-.78-76.57-29.56-76.57-29.56s47.46,35.83,76.13,36.72,80.6-1.19,88.66-12.54c2.45-2.64,6.23-10.68,5.48-18.43C281.2,324.46,278.89,328.84,277.21,330.66Z"/><path class="cls-17" d="M200,338.72c15.19-.4,41.7-16.88,66.38-35-5.11-1.19-11.63-1.62-20.11-.84l-50.44,2.33A28.77,28.77,0,0,1,181.2,302l-49.53-26-9.14,17.45C147.91,314.82,177.45,335.43,200,338.72Z"/><path class="cls-19" d="M276.76,337.82c5.53-6,17.92-39.41-30.45-34.93l-47.46,2.19c-1.08,7.45,1.49,15.61,7.73,19,2.23,1.22,4.95,2,6.21,4.25,1.45,2.62.21,6.05-1.67,8.34s-4.37,4-6,6.5a12,12,0,0,0-1.73,7.33C232.28,350.34,270,347.35,276.76,337.82Z"/><path class="cls-20" d="M206.58,324.11c2.23,1.22,4.95,2,6.21,4.25,1.36,2.46.32,5.59-1.36,7.87,15.26-5.24,35.64-18.3,55-32.5a47.91,47.91,0,0,0-6.75-1c-1.15-.09-2.33-.17-3.59-.19-.81,0-1.64,0-2.5,0-2.28,0-4.64.11-7.27.35l-47.46,2.19C197.77,312.53,200.34,320.69,206.58,324.11Z"/><path class="cls-20" d="M278.2,335.83c.22-.36.45-.73.67-1.15s.35-.69.52-1,.35-.73.52-1.13.37-.9.54-1.36.27-.73.39-1.11c.18-.53.35-1.08.5-1.64.09-.35.18-.7.26-1.06.14-.61.28-1.23.38-1.86,0-.33.09-.67.13-1,.09-.67.17-1.34.2-2,0-.3,0-.59,0-.88a20,20,0,0,0-.06-2.19h0c-1,5.07-3.35,9.45-5,11.27-6.68,9.39-43.44,12.43-72.16,12.69a12,12,0,0,0-1.67,7.18h0l5.34-.07h.41c6.81-.13,13.94-.42,20.93-.91l2.19-.16,3.43-.29,2.88-.26,3.08-.32,3.15-.37,2.67-.35c1.21-.16,2.38-.34,3.55-.53.68-.1,1.39-.2,2.05-.32q2.7-.45,5.19-1l.92-.21c1.34-.3,2.64-.61,3.87-.94.52-.14,1-.29,1.49-.44,1-.28,1.9-.57,2.78-.88.5-.17,1-.35,1.43-.53.8-.31,1.55-.63,2.26-1,.41-.2.81-.39,1.19-.59a19.32,19.32,0,0,0,1.87-1.15c.27-.19.57-.36.81-.56a9.48,9.48,0,0,0,1.87-1.88,11,11,0,0,0,1-1.34C277.93,336.29,278.06,336.05,278.2,335.83Z"/><path class="cls-21" d="M112,313.64q9.21,6.09,18.67,11.71c6.3,3.76,12.71,7.32,19.23,10.62a165.81,165.81,0,0,0,20,8.68,87.83,87.83,0,0,0,10.38,3l2.63.48,2.63.34,2.63.16,2.75.07c7.31.19,14.64.17,22,0s14.64-.44,22-.9,14.6-1.18,21.8-2.38A84.39,84.39,0,0,0,267.3,343c.88-.25,1.72-.58,2.59-.87s1.7-.67,2.49-1.1a12.41,12.41,0,0,0,4.38-3.21,12.66,12.66,0,0,1-4.12,3.68c-.78.52-1.63.89-2.45,1.33s-1.69.78-2.56,1.1A77.73,77.73,0,0,1,257,347.12a184.65,184.65,0,0,1-21.9,3.44c-7.35.8-14.73,1.2-22.1,1.51s-14.76.3-22.15.16l-2.77-.09-2.87-.2-2.84-.39-2.79-.53a80.67,80.67,0,0,1-10.79-3.19c-3.51-1.28-6.93-2.75-10.29-4.33s-6.66-3.27-9.9-5.06c-6.49-3.56-12.75-7.49-18.87-11.61S117.64,318.34,112,313.64Z"/><path class="cls-2" d="M301.84,207.06s-81.5,63.59-102.1,62.69S86,214.22,86,214.22l-13.43,20.6s82.4,89.57,131.66,96.73c34-.89,121.8-76.13,121.8-76.13"/><path class="cls-3" d="M229.29,259.9c.52-1.06.8-2,1.2-3.07-13.13,7.75-24.63,13.19-30.75,12.92C179.14,268.86,86,214.22,86,214.22l-13.43,20.6s3.71,4,10,10.42C91.83,237.7,96.74,225,96.74,225S205.11,309.61,229.29,259.9Z"/><path class="cls-4" d="M301.84,207.06q-12,9.75-24.42,19.06c-8.26,6.2-16.6,12.29-25.1,18.19s-17.13,11.6-26.13,16.79a142.84,142.84,0,0,1-13.93,7.17,54.46,54.46,0,0,1-7.55,2.71,21.89,21.89,0,0,1-4.23.61,10.3,10.3,0,0,1-2.16-.1l-1.06-.11-1-.2a91.18,91.18,0,0,1-15.07-4.86c-4.84-1.93-9.59-4-14.3-6.19-9.43-4.32-18.67-9-27.86-13.75q-27.53-14.32-54.35-29.9l3.51-.83-13.4,20.62L74.51,233c4.65,5,9.48,9.9,14.34,14.74s9.77,9.65,14.76,14.37c10,9.42,20.23,18.58,30.86,27.24,2.65,2.18,5.34,4.29,8,6.43s5.42,4.19,8.19,6.2c5.5,4.06,11.12,8,16.91,11.55a163.2,163.2,0,0,0,17.88,9.76,75.18,75.18,0,0,0,19.05,6.16l-.36,0c5.58-.23,11.3-2,16.79-4.23a164.51,164.51,0,0,0,16.17-7.69c10.55-5.71,20.74-12.18,30.75-18.91s19.84-13.74,29.52-21q7.26-5.43,14.4-11c4.79-3.69,9.54-7.42,14.23-11.24-4.51,4-9.1,8-13.72,11.87S303,275,298.25,278.78c-9.44,7.56-19.05,14.93-28.89,22s-20,13.76-30.54,19.82a155,155,0,0,1-16.41,8.21c-1.41.6-2.83,1.19-4.31,1.68l-2.19.79c-.74.24-1.5.44-2.24.66s-1.5.45-2.27.63l-2.33.47-1.17.24-1.21.12-2.42.23-.12,0-.23,0a79.63,79.63,0,0,1-20.31-6.16,167,167,0,0,1-18.51-9.85c-6-3.61-11.72-7.52-17.35-11.58s-11.15-8.28-16.53-12.65C120.44,284.66,110.08,275.46,100,266s-19.91-19.2-29.37-29.38l-1.41-1.51,1.14-1.74L83.81,212.8l1.35-2.08L87.31,212c17.8,10.35,35.75,20.53,53.91,30.22,9.1,4.83,18.25,9.55,27.5,14,4.63,2.21,9.29,4.37,14,6.35A87.82,87.82,0,0,0,197,267.44l.89.2.86.11a7.49,7.49,0,0,0,1.69.1,18.32,18.32,0,0,0,3.42-.44,50.06,50.06,0,0,0,7.07-2.35,141.22,141.22,0,0,0,13.74-6.67c4.51-2.45,8.94-5.07,13.33-7.75s8.75-5.41,13.08-8.21C268.37,231.23,285.18,219.25,301.84,207.06Z"/><path class="cls-4" d="M223.32,282a14.69,14.69,0,0,0-5.12-5,27.27,27.27,0,0,0-6.47-2.65,52.1,52.1,0,0,0-6.95-1.38,60.78,60.78,0,0,0-7-.55l1.14-5.09c.88.42,1.52.78,2.24,1.19s1.37.84,2,1.29a42.18,42.18,0,0,1,3.77,2.88,45.34,45.34,0,0,1,6.47,6.82,43.91,43.91,0,0,1,4.87,7.95,38.32,38.32,0,0,1,2.95,8.72c-1.78-2.5-3.48-4.95-5.35-7.23a80.71,80.71,0,0,0-5.82-6.52,67.61,67.61,0,0,0-6.43-5.69c-1.13-.87-2.27-1.71-3.45-2.49-.59-.38-1.18-.76-1.77-1.12s-1.24-.72-1.72-.95l-11.45-5.63,12.6.54a44.5,44.5,0,0,1,7.82,1.06,37.12,37.12,0,0,1,7.46,2.48,22,22,0,0,1,6.59,4.49A12.21,12.21,0,0,1,223.32,282Z"/><path class="cls-16" d="M227.5,254.53c8.6-17.67.9-30.45-12.54-41.2s-3.58-52.84-22.39-70.76-39.4-25.07-77.92-16.12S22.4,177.5,22.4,177.5c-14.33,15.23-9.85,24.19,22.39,56.43S95,219.6,95,219.6,203.32,304.24,227.5,254.53Z"/><path class="cls-17" d="M230.92,238.46a35.65,35.65,0,0,1-2.82,8.31c-20.46,42-101.14-12-125.53-29.7,6.08-15.74,7.9-46.43,7.9-46.43-2.73,18.61-13.11,38.15-14.81,41.28l-.11-.08s-17.92,46.57-50.16,14.33c-18.86-18.87-28.16-29.75-29.81-38.59-3.83,10.65,4.55,21.68,29.21,46.35C77,266.17,95,219.6,95,219.6s108.37,84.64,132.55,34.93A30.94,30.94,0,0,0,230.92,238.46Z"/><path class="cls-19" d="M209.34,203.67c-2.86-9.62-3.05-23.46-5.45-36.28,0,0-16.39-3.62-22.27,5.42-3.2,4.92-4,11.86-.09,16.25a16.12,16.12,0,0,1,2.65,3.14c2,4.06-2.49,8.86-1.33,13.25.69,2.65,3.38,4.38,6.08,4.81s5.45-.19,8.12-.81A39.06,39.06,0,0,0,209.34,203.67Z"/><path class="cls-21" d="M111.07,169.74a196.62,196.62,0,0,1-6,27,150.91,150.91,0,0,1-10,25.88,78.74,78.74,0,0,1-7.44,11.92,37.75,37.75,0,0,1-10.53,9.74,22.78,22.78,0,0,1-6.92,2.7,19.41,19.41,0,0,1-7.48,0,28.74,28.74,0,0,1-12.81-6.52l-.07-.06h0c-4.46-4.31-8.77-8.73-13-13.27-2.07-2.3-4.15-4.59-6.14-7s-3.92-4.79-5.73-7.3c2.11,2.26,4.28,4.44,6.47,6.61s4.42,4.29,6.67,6.39,4.5,4.21,6.77,6.27,4.55,4.16,6.85,6.18l-.08-.06c3.54,2.65,7.47,4.83,11.64,5.5a17.46,17.46,0,0,0,12-2.48,36.67,36.67,0,0,0,9.53-8.89A81,81,0,0,0,92.08,221c2.17-4,4.08-8.09,5.86-12.28s3.42-8.44,5-12.74C106,187.37,108.67,178.61,111.07,169.74Z"/><path class="cls-18" d="M15.13,196.25c5.44,3.86,13,4.92,18.67,1.4,3.83-2.39,8.05-6.77,11.92-4.46,1.7,1,2.48,3,3.72,4.56,3.84,4.72,11.8,4,16.3-.09s6.23-10.41,7-16.45.82-12.26,2.86-18c1.15-3.2,2.9-6.19,3.62-9.52a19.53,19.53,0,0,0-1.64-12.16c-28.94,15.44-55.18,36-55.18,36C16.17,184.13,13.5,189.57,15.13,196.25Z"/><path class="cls-21" d="M173.72,182.28a19.24,19.24,0,0,1-1.91,8.53,13.5,13.5,0,0,1-2.68,3.83,8.2,8.2,0,0,1-2.19,1.53,4.69,4.69,0,0,1-5.83-1.43,8.07,8.07,0,0,1-1.24-2.37,13.21,13.21,0,0,1-.6-4.64,19.1,19.1,0,0,1,2.26-8.44,60.8,60.8,0,0,0,.55,8.28,14.82,14.82,0,0,0,1,3.6,5.12,5.12,0,0,0,.79,1.32,1.83,1.83,0,0,0,.78.54,1.78,1.78,0,0,0,.94-.12,5,5,0,0,0,1.31-.8,14.66,14.66,0,0,0,2.53-2.75A60.75,60.75,0,0,0,173.72,182.28Z"/><path class="cls-21" d="M200,185.07a19.39,19.39,0,0,1,0,8.74,13.46,13.46,0,0,1-1.78,4.32,8.05,8.05,0,0,1-1.8,2,4.72,4.72,0,0,1-6-.12,8.27,8.27,0,0,1-1.72-2,13.31,13.31,0,0,1-1.6-4.4,19.17,19.17,0,0,1,.36-8.73,63,63,0,0,0,2.34,7.95,15.18,15.18,0,0,0,1.74,3.31,4.73,4.73,0,0,0,1.06,1.11,1.72,1.72,0,0,0,.88.36,1.78,1.78,0,0,0,.89-.32,5.16,5.16,0,0,0,1.1-1.06,15.31,15.31,0,0,0,1.88-3.24A62.77,62.77,0,0,0,200,185.07Z"/><path class="cls-21" d="M179.84,261.19a43,43,0,0,1-5.19-12.14,72.17,72.17,0,0,1-1.13-26.91,72.87,72.87,0,0,0-.67,27.31,45,45,0,0,0,4.62,13.19,33.31,33.31,0,0,0,3.37,4.49c2.26.64,4.48,1.15,6.68,1.6A30.56,30.56,0,0,1,179.84,261.19Z"/><path class="cls-21" d="M224.52,230.35s-22.09-4.78-19.71,0S218,242.29,218,242.29,240.94,234.23,224.52,230.35Z"/></g></svg>