<svg xmlns="http://www.w3.org/2000/svg" viewBox="0 0 1957.62 1617.47"><defs><style>.cls-1{isolation:isolate;}.cls-2{fill:#dcd4c7;}.cls-3{fill:#614f43;}.cls-4{fill:#8c5e48;}.cls-5{fill:#c96;}.cls-6{fill:#ebc573;}.cls-11,.cls-7{fill:#e8d8c9;}.cls-8{fill:#fae9da;}.cls-9{fill:#d78128;}.cls-10{fill:#51493d;}.cls-11{mix-blend-mode:multiply;}.cls-12{fill:#331723;}.cls-13{fill:#fff;}.cls-14{fill:#b96c29;}.cls-15{fill:#f19b62;}.cls-16{fill:#d7854e;}.cls-17{fill:#efd6c1;}.cls-18{fill:#f9c0b7;}.cls-19{fill:#d17b6a;}.cls-20{fill:#ad7459;}</style></defs><g class="cls-1"><g id="Layer_1" data-name="Layer 1"><ellipse class="cls-2" cx="978.81" cy="1458.96" rx="978.81" ry="158.51"/><polygon class="cls-3" points="1403.27 1008.34 415.68 1008.34 560.77 820.08 1573.45 819.76 1403.27 1008.34"/><polygon class="cls-4" points="1464.34 1407.44 558.38 1381.21 558.38 826.95 1569.25 826.95 1464.34 1407.44"/><polygon class="cls-4" points="1301.49 1562.6 1464.34 1407.44 468.13 1381.21 494.36 1562.6 1301.49 1562.6"/><polygon class="cls-5" points="1300.95 1562.6 494.36 1562.6 415.68 1008.34 1350.82 1008.34 1300.95 1562.6"/><polygon class="cls-6" points="422.91 1018.57 24.07 865.45 194.45 706.81 560.77 820.08 422.91 1018.57"/><polygon class="cls-6" points="1571.51 820.08 560.77 820.08 674.83 541.84 1685.57 541.84 1571.51 820.08"/><path class="cls-7" d="M950.56,1142.52c-26.1,20.16-65,36.83-121.48,47.9,0,0-138.05.19-239.87-19.26-54.6-10.44-98.77-26.52-105.67-51.29-9.32-33.5-26.22-137.33-33.5-248.31q-.69-10.54-1.27-21.16h0c-1.21-22.55-2-45.21-2.17-67.5-.23-26,.34-51.44,1.9-75.53h0c4-61.28,14.54-113.75,35.35-143.79.66-1,1.35-1.93,2-2.84l57.75-2,250.22-8.63,61.6-2.12s19.71,55.79,40.41,121.28c.11.31.21.62.3.92,12.52,39.62,25.39,82.7,34.45,119.09.74,3,1.46,5.9,2.15,8.76C939,824.27,943,846.34,943,860c0,7.14,2.23,16.07,5.78,26.37C971,950.92,1045,1069.56,950.56,1142.52Z"/><path class="cls-8" d="M933.59,795.32c-.27.89-.54,1.79-.83,2.7-1.73,5.6-3.52,11.17-5.52,16.71C922.73,825.46,917,846.9,910.86,869c-2.57,9.19-5.24,18.46-7.89,27.11-4.9,15.76-9.87,29.46-14.68,36.74C877.72,948.86,866.88,962,855.36,973c-28.87,27.33-62.09,40.79-106.64,51.11-19.59,4.55-41.38,1.38-59.76,4.92-34.28,6.57-77.4,12.66-114,3.92a111.66,111.66,0,0,1-24.68-8.84c-42.17-21.32-82.82-102.42-100.23-152.51-.95-2.65-1.79-5.19-2.57-7.65a63.63,63.63,0,0,1-2.54-12c-2-17.33,1.84-35.74,1.7-53-.05-5.33-.08-10.68-.05-16v-2.27c.11-25.41.89-50.82,2.86-76.15v0c0-.43.06-.86.11-1.3.22-2.65.43-5.32.65-8,2.73-33.19,6.92-70.28,19.19-102.09,2.63-6.79,8.57-18.76,14.44-29.44A216.87,216.87,0,0,1,495,545l39.74.68,259.13,4.43,22.27.4,33.82.57,5.86.11s7.57,22.08,14.57,42.3c4.55,13.09,10.11,29.36,16.17,47.53,3,9,6.14,18.49,9.3,28.24.11.33.21.63.3.92,12.54,38.55,25.92,81.8,36.11,120.13C932.73,792,933.16,793.67,933.59,795.32Z"/><path class="cls-9" d="M933.6,795.32c-.27.91-.55,1.8-.83,2.7-1.73,5.6-3.54,11.18-5.53,16.7C922.72,825.45,917,846.91,910.85,869a45.35,45.35,0,0,1-7.72-.6c-14.16-2.29-23.5-11.2-29.86-23.3-13.37-25.42-13.57-64.86-17.63-86.36-.08-.41-.17-.8-.25-1.19s-.16-.78-.25-1.16-.18-.76-.27-1.12c-.14-.53-.29-1-.44-1.53a38.87,38.87,0,0,0-1.36-3.91c-.23-.56-.46-1.1-.7-1.62s-.49-1-.74-1.54c-.13-.22-.23-.44-.35-.65-.22-.43-.46-.87-.72-1.28-.32-.56-.65-1.08-1-1.61h0c-13.41-20.42-42.38-23.06-61.24-93.2-11.89-44.2,7-77.6,27.81-99.41l33.84.58,5.84.1s7.58,22.1,14.6,42.32c4.52,13.07,10.09,29.34,16.14,47.53,3,9,6.13,18.46,9.32,28.24.11.31.21.62.3.92,12.54,38.54,25.92,81.79,36.11,120.11C932.73,792,933.17,793.66,933.6,795.32Z"/><path class="cls-10" d="M933.6,795.32c-.27.91-.55,1.8-.83,2.7-1.73,5.6-3.54,11.18-5.53,16.7C922.72,825.45,917,846.91,910.85,869a45.35,45.35,0,0,1-7.72-.6c-14.16-2.29-23.5-11.2-29.86-23.3-13.37-25.42-13.57-64.86-17.63-86.36-.08-.41-.17-.8-.25-1.19s-.16-.78-.25-1.16-.18-.76-.27-1.12c-.14-.53-.29-1-.44-1.53a38.87,38.87,0,0,0-1.36-3.91c-.22-.56-.46-1.1-.7-1.62s-.49-1-.74-1.54c-.13-.22-.23-.44-.35-.65-.23-.43-.48-.87-.72-1.28-.32-.56-.65-1.08-1-1.61h0c5.41-26.07,10.56-52.24,18.5-77.61q4.31-7.14,9.19-14,4.5-5.4,9.3-10.51c3,9,6.13,18.46,9.32,28.24.11.31.21.62.3.92,12.54,38.54,25.92,81.79,36.11,120.11C932.73,792,933.17,793.66,933.6,795.32Z"/><path class="cls-9" d="M537.33,549.09a49.47,49.47,0,0,0-.83,9,575.31,575.31,0,0,1-3.19,63.9,304,304,0,0,1-16.9,63.36,159.6,159.6,0,0,1-13.49,24.9c-6.43,7.62-13.43,14.76-20.19,22.11-.7.73-1.38,1.46-2.05,2.22a264.56,264.56,0,0,0-31.52,41.65c-.87,1.44-1.73,2.9-2.57,4.36.11-25.41.89-50.82,2.86-76.15v0c0-.43.06-.86.11-1.3.22-2.65.43-5.32.65-8l-.78-.48c4.59-55.8,15.08-103.13,34.41-131A216.87,216.87,0,0,1,495,545l39.74.68C535.6,546.76,536.47,547.93,537.33,549.09Z"/><path class="cls-10" d="M482.73,732.39c-.7.73-1.38,1.46-2.05,2.22a264.56,264.56,0,0,0-31.52,41.65c-.87,1.44-1.73,2.9-2.57,4.36.11-25.41.89-50.82,2.86-76.15v0c0-.43.06-.86.11-1.3.22-2.65.43-5.32.65-8C462.46,702.76,475.38,714.58,482.73,732.39Z"/><path class="cls-11" d="M870.4,593.48c-7-20.22-14.94-45.51-14.94-45.51L499.9,536.6c-7,9.77-26,44.8-30.49,56.42a339.17,339.17,0,0,0,50.49,25.72c.12.18,68.06,109,111.56,106.86s159-98.14,159.59-98.6A498.27,498.27,0,0,0,870.4,593.48Z"/><path class="cls-9" d="M917.13,471.11C901.58,510,860.29,567.7,786.65,600.35c-2.66,1.21-5.38,2.35-8.12,3.46-78.75,31.92-127.47,18.89-176.7,4.79-13.85-4-49.14-14.5-79.58-36.37a153,153,0,0,1-14.31-11.51c-17.83-16.2-57.07-87.66-60-116.33s11.51-86.82,11.51-86.82c6.54-233.27,152.82-254,152.82-254,52.63-21.83,131-.51,182.67,15.21,60.44,18.4,117.24,58.06,126.58,78.31C956.27,272.55,933.25,430.84,917.13,471.11Z"/><path class="cls-8" d="M764.16,409.18c-2.23-3-42.06-99.8-42.06-99.8l-52.2-7.88-93.3,94.85Z"/><path class="cls-8" d="M673.46,435.25h0c-18.39-3.2-27.86-29.58-21.65-56.07l36.82-156.86c2.8-11.92,14-19.53,25.06-17.61h0c11,1.93,19,12.89,17.61,25.06L712.82,389.83C709.7,416.85,691.85,438.46,673.46,435.25Z"/><path class="cls-8" d="M786.65,600.35c-2.66,1.21-5.38,2.35-8.12,3.46-78.75,31.92-127.47,18.89-176.7,4.79-13.85-4-49.14-14.5-79.58-36.37-8.12-14.05-13.9-30.54-16.64-49.75,0,0,26.82-90,46-107.64s121.28-88.31,185.88-34.41C801.2,433.61,823.27,546.18,786.65,600.35Z"/><path class="cls-12" d="M778.76,353.34s5-23.17,31.9-28.12,40.27,19.54,43.06,39c0,0-7.27,22.69-25.74,21.38S775.4,368.8,778.76,353.34Z"/><path class="cls-13" d="M815.41,346.48c-1.09,5-5.47,8.25-9.8,7.31s-7-5.74-5.87-10.72,5.47-8.25,9.79-7.31S816.49,341.5,815.41,346.48Z"/><path class="cls-12" d="M611.58,320.67s6.73-22.69-14.25-40.51-44.39-3.29-56.16,12.25c0,0-4.56,23.39,12.13,31.54S607.09,335.8,611.58,320.67Z"/><ellipse class="cls-13" cx="590.63" cy="298.71" rx="9.21" ry="8" transform="translate(173.24 812.39) rotate(-77.73)"/><path class="cls-12" d="M649.55,494.84S608,458.07,609.22,449.07s-2.68-56,31.85-58.28,102,13.91,103.79,47.56-20.16,48.31-20.16,48.31S664.65,510.32,649.55,494.84Z"/><path class="cls-14" d="M897.37,171.19s15.18,68.17,16,85.62,10.39,52.38,0,79.81-22.38,97.26-24,128.85-7.19,45.72-7.19,64-12,30.76,4,60.69,44.75,54.87,63.93,49.05,25.57-22.45,27.17-42.4,85.5-60.69,80.7-118.88S986.87,231.88,897.37,171.19Z"/><path class="cls-14" d="M571,184.55s-40.34,56.65-42.12,97.92,6.1,79.8-8,114-24,105.77-50.63,127.7-82.84,31.52-90.22-13.25-27.33-209.53-7.17-235.69,25.7-37,41-50.84,104.27-69.48,115.84-76.16,69.93-46.68,69.45-32S571,184.55,571,184.55Z"/><path class="cls-12" d="M554.21,450.41a57.73,57.73,0,0,0-1.5,21.37,43.08,43.08,0,0,0,7.76,20.48,37.07,37.07,0,0,0,8.93,8.6,47.7,47.7,0,0,0,12.53,6,99.12,99.12,0,0,0,20.5,3.86c6.86.68,13.58,1,19.55,1.64l32.41,3.43a3.48,3.48,0,0,0,.73-6.92l-32.41-3.42c-8.32-.88-17.48-1.18-26.17-2.45a76.21,76.21,0,0,1-12.48-2.76,40.64,40.64,0,0,1-10.72-5.11,30.34,30.34,0,0,1-7.28-7,36.27,36.27,0,0,1-6.45-17.19,50.74,50.74,0,0,1,1.33-18.76,3.48,3.48,0,1,0-6.73-1.77Z"/><path class="cls-12" d="M765,526.92a50.74,50.74,0,0,1-4.53,8.06,45.63,45.63,0,0,1-9.63,10.3,32.83,32.83,0,0,1-12.13,6,29.4,29.4,0,0,1-9.8.7,43.59,43.59,0,0,1-14.57-4.33,107,107,0,0,1-14.32-8.54c-5-3.46-9.94-7.15-14.71-10.44l-1.1-.74L657.1,509.6a3.48,3.48,0,1,0-3.89,5.76l27.15,18.36,1,.71c4.6,3.17,9.52,6.87,14.71,10.44,6.46,4.43,13.34,8.68,20.72,11.39a46,46,0,0,0,11.46,2.68,36.58,36.58,0,0,0,12.12-.88,39.71,39.71,0,0,0,14.71-7.27,52.57,52.57,0,0,0,11.11-11.87,57.86,57.86,0,0,0,5.15-9.17,3.48,3.48,0,1,0-6.35-2.83Z"/><path class="cls-12" d="M659.05,490.37l-7.15,20.88a3.48,3.48,0,1,0,6.58,2.25l7.15-20.88a3.48,3.48,0,1,0-6.58-2.25"/><polygon class="cls-12" points="612.03 511.33 688.77 539.4 654.39 513.36 612.03 511.33"/><path class="cls-15" d="M1473.21,857.55c-.56,67.21-9.08,143.83-41.86,203.53-11.9,21.67-26.5,31.42-43.21,35.91l-.09,0c-23.81,6.38-51.88,2.15-82.57,6.52-1.36.19-2.73.41-4.12.64-25.87,4.34-48.44,1.88-74.43,6.26-1.25.2-2.52.41-3.8.6-1.09.16-2.17.32-3.26.45l-.64.08c-1,.14-2,.26-3,.37-1.21.13-2.43.26-3.63.37-35.14,3.18-73-3.93-91.37-38.54-15.59-29.36-28.5-61.73-39.06-94.61-7.57-23.55-13.95-47.35-19.24-70.49-12.58-55-19-111.09-25.85-167-1.43-11.61-3.5-23.62-4.67-35.66-1.45-14.9-1.54-29.85,2.63-44.12,10.49-35.92,58.46-47.19,87.18-64.24,22.79-13.52,44.29-29,65.88-44.36q10.68-7.6,21.41-15.06c29-20,58.51-25,91.93-33.92,13.34-3.53,26.45-8.21,40.14-9.88,29.34-3.6,46.9,9.69,54,37.66,18.38,72.68,48,141.58,64.7,214.85C1468.37,782.81,1473.53,819.41,1473.21,857.55Z"/><path class="cls-16" d="M1388.14,1097l-.09,0c-23.81,6.38-51.88,2.15-82.57,6.52-1.36.19-2.73.41-4.12.64-25.87,4.34-48.44,1.88-74.43,6.26-1.25.2-2.52.41-3.8.6-1.09.16-2.17.32-3.26.45l-.64.08c-1,.14-2,.26-3,.37-1.21.13-2.43.26-3.63.37-37.31,3.52-84.12-2.51-102.57-37.28-9.19-17.3-21.11-77.59-28.49-96.48a2,2,0,0,1,.63.61c4.1,5.32,19.75,42.22,22.25,43.21,31.23,12.29,63.4,24,94,36.7,47.66,19.75,99.85,26.56,151.12,27.15,4.66,0,9.31-.13,14-.47a28.25,28.25,0,0,1,24.63,11.15Z"/><path class="cls-8" d="M1144.39,823.07a366.68,366.68,0,0,0,13.38,35c22.16,50.14,54,101.15,105.72,124.88,26.58,12.21,63,12.11,90.65,3.18,56.44-18.21,41.9-92.94,43-138.71.78-31.52,3.38-63.5,2.41-95a422.8,422.8,0,0,0-13.19-92.54c-5-19.5-9.33-45.92-31.63-52.7-22.57-6.87-47.26,1.2-69.91,3.39-35.71,3.44-71.8,15.14-107.5,12C1021.42,609.11,1127.07,769.71,1144.39,823.07Z"/><path class="cls-17" d="M1359,536.88c-55.6,15.06-111.71,28-167.5,42.37q-42.74,11-85.42,22.15c-13.1,3.4-26.72,5.71-40,9a129.93,129.93,0,0,1-24.2,14.08c-2.77,11.53-3.18,23.54-2.71,35.57l2.87.48c.85.52,179.61,109,239.8,103s131.49-169.6,131.61-169.89l.27-.16a591.2,591.2,0,0,0-17.87-66.09C1383.53,530.3,1371.26,533.56,1359,536.88Z"/><path class="cls-15" d="M1404.9,591.4s42.75-5.92,61.92,13.68c21.79,22.26,28.38,81.87,28.38,81.87l-28.87,79.7Z"/><path class="cls-15" d="M1487.31,578.78s-9.91,96.07-28.37,111.2.4,83.8,35.23,90.81a53.82,53.82,0,0,0,24.33-.43c22.49-5.82,39.31-26.91,49-55.33,13-37.89,30.23-124,25-140.26-3.79-11.68,37.26-130.42-32.42-130.38,0,0-26.56-28-49.49,5.58,0,0-36.36,2-33.36,34,1.37,14.6-2.65,30.08-.74,44.62s7.87,25.2,10.71,39.61C1487.24,578.43,1487.28,578.61,1487.31,578.78Z"/><path class="cls-8" d="M1476.5,538.64c1.92,14.58,7.87,25.2,10.71,39.61,0,.17.06.34.1.51,1.52,7.68-1.23,7.61,3.33,13.52,13.15,17,36.33,18.54,56,16.05,10.54-1.33,51.38-6.42,45.84-23.56-3.79-11.68,37.26-130.42-32.42-130.38,0,0-26.56-28-49.49,5.58,0,0-36.36,2-33.36,34C1478.61,508.62,1474.59,524.1,1476.5,538.64Z"/><path class="cls-12" d="M1538.37,498.13c-5.7.2-9.66-8.19-8.84-18.74s6.11-19.27,11.81-19.47,9.66,8.19,8.84,18.74S1544.07,497.93,1538.37,498.13Z"/><path class="cls-12" d="M1570,523c-5.7.2-9.66-8.19-8.84-18.74s6.11-19.26,11.81-19.46,9.66,8.19,8.84,18.73S1575.69,522.79,1570,523Z"/><path class="cls-12" d="M1505.83,514.47c-5.7.2-9.66-8.19-8.84-18.73s6.11-19.27,11.81-19.47,9.66,8.19,8.84,18.74S1511.53,514.27,1505.83,514.47Z"/><path class="cls-12" d="M1534.37,572.7c-9.72.65-17.28-13.33-16.88-31.24s8.6-32.94,18.32-33.59,17.27,13.33,16.88,31.24S1544.09,572.05,1534.37,572.7Z"/><path class="cls-16" d="M1526.06,777.46a11.24,11.24,0,0,1-1.06.87c-10,6-75,22.59-93.83-54.08,0,0,50.74,66,90.41,52.32C1522.82,779.52,1525.82,777,1526.06,777.46Z"/><path class="cls-15" d="M1093.12,317.19h0a105.72,105.72,0,0,1-8,8.1L1013.28,391c-13.46,12.29-29.35,25.82-48.12,26.87h0a43.41,43.41,0,0,1-19.74-3.62c-71.85-30.54-153.55-213.66-104-269.55.25-.29,20.86-30.38,91.55,29.43,18.36,15.54,45.56,42.76,70.5,59.29,38.19,25.32,94.69,29.16,94.69,29.16C1119.33,276.56,1108,300.34,1093.12,317.19Z"/><path class="cls-18" d="M1087.31,323.14h0a99.07,99.07,0,0,1-7.45,7.57l-67.18,61.37c-12.57,11.48-27.43,24.13-45,25.11h0a46,46,0,0,1-7.57-3c-63.54-31.85-145-191.82-97.61-230.82.23-.18.86-.78,1.12-1,15.3-11.81,48.07,9.34,64.83,25.66,16.06,15.63,42.36,40.17,64.94,56.29,1.1.78,2.21,1.56,3.33,2.31,19.12,12.75,41.62,20.67,57.79,25.18a217.5,217.5,0,0,0,21.64,5C1086.93,304.48,1089.29,314,1087.31,323.14Z"/><path class="cls-15" d="M1024.35,291.61c-19.74-13.65-32.08-29.73-27.56-35.91s24.17-.12,43.91,13.53,32.08,29.73,27.56,35.92S1044.09,305.27,1024.35,291.61Z"/><path class="cls-15" d="M1017.94,306c-15.78-5.78-27-14.78-25-20.09s16.4-4.92,32.18.86,27,14.77,25,20.08S1033.72,311.79,1017.94,306Z"/><path class="cls-15" d="M1238.06,277.62h0a105.62,105.62,0,0,0,11,2.93l95.27,20c17.83,3.75,38.39,7.32,55.09-1.31h0a43.6,43.6,0,0,0,15.16-13.15c46.37-62.81,23.68-262-47.41-285-.36-.13-33.41-15.57-63.89,71.86-7.92,22.72-17.52,60-30.6,86.89-20,41.21-66.74,73.23-66.74,73.23C1194.84,255.94,1216.66,270.68,1238.06,277.62Z"/><path class="cls-18" d="M1239,281.73h0a99.47,99.47,0,0,0,10.27,2.74l89,18.72c16.67,3.5,35.89,6.84,51.49-1.22h0a46.39,46.39,0,0,0,5-6.48c38.54-59.71,27.4-238.87-33.22-248.39-.29,0-1.14-.23-1.46-.27-19.18-2.39-36.65,32.47-42.79,55-5.9,21.62-16.08,56.13-27.34,81.49-.55,1.23-1.11,2.46-1.69,3.68-10,20.69-25.34,39-37,51.05a217.61,217.61,0,0,1-16.11,15.3C1229.82,265.47,1232.6,274.83,1239,281.73Z"/><path class="cls-15" d="M1284.3,220.65c10.06-21.79,12.52-41.91,5.49-44.94s-20.88,12.18-30.94,34-12.53,41.91-5.5,44.94S1274.23,242.44,1284.3,220.65Z"/><path class="cls-15" d="M1297.14,229.79c10.65-13,15.71-26.43,11.3-30s-16.63,4.09-27.29,17.09-15.71,26.42-11.3,30S1286.48,242.79,1297.14,229.79Z"/><path class="cls-15" d="M1435.2,577.38l-2.29,2.85v0c-17.41,22-39.69,47.14-68,76-45.64,46.65-103,57.89-152.88,53.2a651.17,651.17,0,0,1-108.75-19.83c-3.16-.85-6.28-1.76-9.4-2.67-73.57-21.76-140.32-59.1-142.75-116.58,0,0-26.26-263.87,104-317.91,0,0,158.36-49.3,184.21-48.26,132.72,5.48,237.32,189.71,248.2,225.64C1495.25,455.31,1501.77,492.39,1435.2,577.38Z"/><path class="cls-8" d="M1436.51,576.09c-.75.93-2.85,3.21-3.6,4.14v0c-17.41,22-39.69,47.14-68,76-45.64,46.65-103,57.89-152.88,53.2a651.17,651.17,0,0,1-108.75-19.83v-.05c-3.16-.85-6.27-1.71-9.39-2.62-.82-13.73-.82-26.15.49-35.35-8.92-70,18.65-155.87,64.21-202.19l5.36-18.75.2-.05-28.07-107.95c-4.2-16.24,4.15-32.58,18.39-37.21s30.45,3.61,36.5,19.27l39.32,102.48,10.53,9c70.68,6.33,155.35,77.17,188.41,147.31C1429.32,563.6,1434.59,573.76,1436.51,576.09Z"/><path class="cls-19" d="M1311.39,519s-1.22,13.61-3.36,28.22c-1.41,9.62-3.24,19.71-5.41,26.68-1.11,3.64-2.3,6.42-3.58,7.86-9,12.44-72.9,24.27-101.45,24.27-6.48,0-11.16-.61-12.93-2-2.33-1.19-5.81-4.71-9.57-9.05-8.89-10.27-19.32-25.25-19.32-25.25l23.39,2.36,49.33-25.22,58.84-6.63.58.7Z"/><path class="cls-12" d="M1331,460.75a5.05,5.05,0,0,0-7.07-1.07l-10.68,7.85a5.09,5.09,0,0,0-2,3.13s-1.46,7.68-3.13,16.76-3.54,19.56-4.4,25.32a16,16,0,0,1-2.38,6.08,44.36,44.36,0,0,1-8.76,9.57c-3.7,3.19-8,6.32-12.16,9.44h0a6.54,6.54,0,0,1-.77.49,21.18,21.18,0,0,1-4.79,1.77,79.36,79.36,0,0,1-13.48,1.94c-7.59.56-15.78.53-22,.35-3.13-.09-5.77-.22-7.63-.32-.93,0-1.66-.09-2.15-.13l-.56,0-.18,0a5.18,5.18,0,0,0-2.65.53l-46.48,23.33a15.66,15.66,0,0,1-7.33,1.51c-4.35-.13-9.19-2-14-5.17-7.21-4.69-14.14-12-19.29-18.19-2.59-3.11-4.74-5.94-6.35-8.08-.81-1.06-1.48-1.95-2-2.66-.29-.36-.54-.67-.82-1a6,6,0,0,0-.51-.54c-.11-.1-.23-.22-.41-.36a6,6,0,0,0-.77-.53,10.14,10.14,0,0,0-1.14-.52c-.62-.24-1.27-.45-2-.69-2.61-.8-6.44-1.78-9.7-2.59s-5.88-1.43-5.9-1.44a5.06,5.06,0,0,0-2.32,9.86l.66.15c1.48.36,5.24,1.26,8.79,2.18,1.78.46,3.51.93,4.83,1.32.55.16,1,.31,1.38.43l.27.35c1.48,1.91,4.33,5.83,8.06,10.33,5.62,6.77,13.25,15,22.21,20.74a41.14,41.14,0,0,0,14.57,6.08,26.27,26.27,0,0,0,16.16-2l.11,0,45.35-22.77c3.21.2,11.57.65,21,.53a163.7,163.7,0,0,0,18.43-1.15,70.25,70.25,0,0,0,8.43-1.56,31.24,31.24,0,0,0,7.21-2.73,18,18,0,0,0,1.86-1.21h0c5.51-4.13,11.58-8.52,16.7-13.56a45.63,45.63,0,0,0,6.76-8.23,26.12,26.12,0,0,0,3.8-9.93c.8-5.45,2.68-15.94,4.34-25,.83-4.52,1.61-8.7,2.18-11.74.23-1.2.42-2.21.57-3l9.07-6.67A5.06,5.06,0,0,0,1331,460.75Z"/><path class="cls-12" d="M1169.36,477.14c8.43-26.62,38.61-30.26,61.1-27.63,23.65,2.77,30.3,43.6,18,56.9-3.13,3.39-14.2,7.44-18,10.09-3.36,2.36-3.62,7.38-7.11,8.93-3.88,1.73-7.84-1.31-11.66-1.57-5.22-.36-10.28,1.2-15.63.3C1176.08,520.8,1163.4,496,1169.36,477.14Z"/><ellipse class="cls-8" cx="1077.38" cy="351.97" rx="25.96" ry="17.5" transform="translate(-11.46 666.7) rotate(-34.21)"/><ellipse class="cls-8" cx="1266.88" cy="300.24" rx="17.5" ry="25.96" transform="translate(886.07 1545.27) rotate(-86.33)"/><path class="cls-12" d="M1113,444.17s-12.32-24.64-40.79-13.53-21.5,38.78-17.21,42.83,17.72,21.95,37.55,11.5S1120.8,453.63,1113,444.17Z"/><path class="cls-13" d="M1084.09,441.81a6,6,0,1,0,5-6.91A6,6,0,0,0,1084.09,441.81Z"/><path class="cls-12" d="M1279.29,391.34s-2-27.47,28.2-32.43,38.26,22.4,36.63,28.08-4,27.91-26.44,29S1277.36,403.48,1279.29,391.34Z"/><path class="cls-13" d="M1301.22,374.64a6,6,0,1,1-7.82-3.39A6,6,0,0,1,1301.22,374.64Z"/><path class="cls-18" d="M1302.62,573.93c-1.11,3.64-2.3,6.42-3.58,7.86-9,12.44-72.9,24.27-101.45,24.27-6.48,0-11.16-.61-12.93-2-2.33-1.19-5.81-4.71-9.57-9.05,13.69-11.22,34.94-20.6,59.67-25.06C1261.14,565.25,1285.74,567.15,1302.62,573.93Z"/><polygon class="cls-20" points="1300.95 1562.6 1350.82 1008.34 1571.51 820.08 1464.34 1407.44 1300.95 1562.6"/><polygon class="cls-20" points="1333.42 1212.55 439.93 1217.8 396.24 1008.34 1331.16 1008.34 1333.42 1212.55"/><polygon class="cls-6" points="1415.45 1180.59 415.68 1180.57 396.24 1008.34 1350.82 1008.34 1415.45 1180.59"/><polygon class="cls-6" points="1716.09 923.84 1351.29 1010.07 1521.47 821.82 1899.71 730.36 1716.09 923.84"/></g></g></svg>